<svg style="fill:#5abf28" id="Layer_1" viewBox="0 0 512 512" xmlns="http://www.w3.org/2000/svg" data-name="Layer 1"><path d="m96.42 458.6a76.422 76.422 0 0 0 40.893 11.536 79.5 79.5 0 0 0 9.986-.627c16.758-2.123 30.762-9.3 40.166-20.419l68.535 43.317v19.593h16v-19.726l68.43-45.774c12.1 11.932 29.315 17.485 46.618 17.484 14.7 0 29.459-4.008 41.172-11.513 27.353-17.524 63.166-101.68 67.159-111.218a8 8 0 0 0 -7.1-11.085c-10.332-.358-101.755-3-129.107 14.525-14.374 9.209-25.737 24.395-31.177 41.663-5.369 17.042-4.307 33.644 2.893 47.278l-58.888 39.39v-117.634l66.029-63.911c10.114 8.087 23.167 12.378 37.729 12.378q3.177 0 6.446-.273c18.042-1.515 35.352-9.266 47.492-21.266 23.1-22.835 40.606-112.6 42.526-122.766a8 8 0 0 0 -9.255-9.363c-10.183 1.8-100.149 18.259-123.253 41.095-12.141 12-20.092 29.219-21.816 47.241-1.5 15.629 1.791 29.9 9.313 41.158l-55.211 53.44v-141.76c32.54-5.016 56-39.9 56-71.363 0-32.484-51.541-108.039-57.418-116.547a8 8 0 0 0 -13.164 0c-5.877 8.508-57.418 84.063-57.418 116.547 0 17.07 6.656 34.83 18.262 48.726 10.547 12.628 23.723 20.459 37.738 22.633v143.107l-58.663-50.9c8.15-11.387 11.813-26.074 10.36-42.252-1.619-18.032-9.471-35.3-21.541-47.367-22.97-22.97-112.84-39.95-123.012-41.811a8 8 0 0 0 -9.309 9.309c1.86 10.172 18.84 100.042 41.811 123.011 12.07 12.07 29.335 19.922 47.368 21.542q3.486.313 6.876.313c13.851 0 26.34-3.909 36.23-11.292l69.88 60.631v117.829l-60.2-38.051c12.5-29.947-4.145-67.832-30.331-84.609-27.35-17.524-118.769-14.885-129.107-14.526a8 8 0 0 0 -7.1 11.085c3.992 9.539 39.805 93.695 67.158 111.222zm323.169-19.6c-22.122 14.173-49.756 10.612-65.293-1.773l30.019-20.08 49.326 7.021c-5.003 6.832-9.797 12.104-14.052 14.832zm49.743-78.723c-7.35 15.579-16.635 33.878-25.92 49.12l-39.175-5.576zm-77.379 32.51 3.157-42.6c20.188-3.139 46.219-4.178 66.988-4.322zm-48.7-1.622c4.269-13.549 13.445-25.885 24.548-33a43.058 43.058 0 0 1 11.01-4.545l-3.739 50.458-30.794 20.6c-4.486-9.571-4.878-21.278-1.025-33.515zm37.612-103.525c-12.143 1.023-22.982-1.6-31.2-7.426l23.719-22.958 51.9 3.994a42.848 42.848 0 0 1 -6.835 9.69c-9.379 9.268-23.428 15.512-37.584 16.7zm-3.135-56.855-1.569-41.673c18.615-7.075 43.04-13.357 63.009-17.8zm73.333-48.713c-4.67 20.045-11.312 44.839-18.707 63.673l-43.61-3.356zm-117.238 57.977c1.354-14.141 7.76-28.117 17.138-37.386a42.125 42.125 0 0 1 9.451-6.549l1.868 49.623-23.29 22.543c-4.366-7.826-6.192-17.536-5.167-28.231zm-148.387 32.371-19.018-19.02 1.409-53.374a36.762 36.762 0 0 1 7.012 5.228c19.659 19.657 21.243 49.593 10.597 67.166zm-99.144-99.144c20.869 4.751 46.747 11.576 65.729 19.188l-1.2 45.344zm53.623 76.251-45.167 2.226c-7.846-19.1-14.9-45.764-19.771-67.164zm-32.958 23.611a33.937 33.937 0 0 1 -4.445-5.747l52.67-2.6 18.941 18.941c-17.573 10.648-47.511 9.061-67.166-10.595zm165.041-238.364c10.947 17.4 23.8 39.4 31.921 57.779l-31.921 29.261zm-16 87.04-31.918-29.259c8.125-18.377 20.972-40.378 31.918-57.776zm16 53.172v-31.466l38.013-34.845a42.178 42.178 0 0 1 1.987 11.325c0 27.8-20.046 50.088-40 54.986zm-56-54.986a42.16 42.16 0 0 1 1.989-11.324l38.011 34.844v31.466c-19.954-4.898-40-27.186-40-54.986zm-94.61 287.322-40.175 8.178c-9.522-15.633-19.043-34.48-26.476-50.307zm-57.58-55.322c21.671.187 48.726 1.355 68.9 4.831l1.29 39.532zm41.241 93.127c-4.337-2.779-9.234-8.2-14.342-15.229l50.221-10.223 32.745 20.7c-14.625 14.717-44.818 20.001-68.624 4.75zm51.789-80.834c23.007 14.741 31.082 42.918 25.045 62.341l-31.541-19.934-1.5-46.02a36.817 36.817 0 0 1 8 3.616z"/></svg>